
        <svg xmlns="http://www.w3.org/2000/svg" xmlns:xlink="http://www.w3.org/1999/xlink" version="1.1" width="3162.263241741332" 
        height="947.1046508175256" viewBox="0 0 3162.263241741332 947.1046508175256">
			
			<g transform="scale(8.113162087066575) translate(10, 10)">
				<defs id="SvgjsDefs2906"></defs><g id="SvgjsG2907" featureKey="hmhgWD-0" transform="matrix(1.037912368774414,0,0,1.037912368774414,-5.924406158927157,0.6541499567128284)" fill="#de761c"><g xmlns="http://www.w3.org/2000/svg"><g><path fill="#de761c" d="M61.796,31.233c0.24-1.163-3.086-4.209-6.512-4.913c-3.425-0.705-6.395-0.332-6.634,0.83    c-0.239,1.162,2.344,2.676,5.769,3.38C57.846,31.235,61.559,32.396,61.796,31.233z M69.664,46.394    c-0.936,0.926,0.518,3.908,3.24,6.66c2.725,2.754,4.967,5.631,5.9,4.707c0.937-0.924,0.209-5.303-2.519-8.055    C73.564,46.952,70.598,45.468,69.664,46.394z M58.688,38.791c-2.976-2.481-6.067-3.674-6.912-2.665    c-0.84,1.01,0.889,3.84,3.861,6.32c2.975,2.48,7.342,2.554,8.187,1.545C64.664,42.98,61.661,41.271,58.688,38.791z M38.457,30.02    c-3.865-0.255-7.069,0.602-7.155,1.914c-0.086,1.312,2.976,2.583,6.841,2.838c3.865,0.256,7.068-0.602,7.155-1.913    C45.385,31.546,42.322,30.275,38.457,30.02z M95.51,83.817l-1.517,0.062l1.515-0.094c-0.146-2.334-0.203-5.152-1.226-9.117    c-1.021-3.969-2.988-9.088-6.901-16.281c-0.009-0.016-0.02-0.031-0.027-0.049c-5.725-12.242-15.646-29.457-30.223-39.748    c0.11-0.737,0.186-1.562,0.186-2.443c-0.002-1.361-0.166-2.835-0.684-4.231c-0.511-1.385-1.435-2.738-2.929-3.546    c-0.138-0.074-0.282-0.126-0.437-0.157c-0.078-0.015-0.927-0.172-2.331-0.172C49.01,8.04,46.019,8.34,42.543,9.725    c-0.239-0.01-0.583-0.021-1.01-0.021c-2.319,0.026-7.078,0.236-10.745,2.775c-1.496,0.163-6.361,0.841-10.332,3.709    c-0.163-0.011-0.351-0.017-0.564-0.017c-1.883-0.002-5.73,0.499-11.7,3.485c-0.146,0.074-0.271,0.171-0.382,0.281    c-0.424,0.241-0.811,0.574-1.11,0.997c-0.673,0.93-0.99,2.153-0.992,3.674c0.005,2.137,0.625,4.931,2.183,8.719    c0.162,0.391,0.475,0.693,0.871,0.842c0.007,0.002,2.845,1.068,7.682,3.051c10.592,4.344,30.688,13.07,50.89,24.396    c0.012,0.131,0.029,0.26,0.029,0.395c0.002,3.5,0.352,6.324,0.869,8.363c0.265,1.025,0.562,1.85,0.941,2.527    c0.195,0.338,0.409,0.646,0.727,0.934c0.307,0.277,0.783,0.574,1.426,0.58c0.76,0.002,1.354-0.463,1.643-0.857    c0.452-0.612,0.633-1.247,0.801-2.053c0.154-0.807,0.248-1.781,0.276-2.977c0.026-1.293,0.308-2.217,0.593-2.697    c0.557,0.332,1.115,0.658,1.672,0.994c0.717,1.488,1.41,4.205,1.381,8.248v0.303c0,0,0,0.043,0,0.107    c0.002,1.846,0.302,3.553,0.785,4.908c0.25,0.68,0.533,1.271,0.938,1.795c0.393,0.484,0.979,1.062,1.988,1.092    c0.834,0.004,1.504-0.51,1.854-1c0.558-0.76,0.833-1.658,1.081-2.92c0.234-1.261,0.389-2.875,0.439-4.957    c0.014-0.568,0.066-1.057,0.14-1.438c0.224,0.459,0.474,1.104,0.685,1.934c0.449,1.67,0.832,4.07,1.004,7.241    c0.183,3.286,0.658,5.671,1.361,7.378c0.357,0.854,0.771,1.549,1.319,2.102c0.53,0.539,1.286,0.955,2.128,0.955h0.01    c0.803,0,1.512-0.373,2.01-0.844c1.459-1.453,2.058-3.805,2.099-6.975C95.529,84.454,95.523,84.139,95.51,83.817z M10.456,31.565    c-1.279-3.23-1.714-5.518-1.709-6.957c-0.002-1.098,0.246-1.668,0.408-1.883c0.172-0.209,0.203-0.177,0.285-0.191    c0.043-0.001,0.237,0.019,0.57,0.275c1.029,0.733,2.79,3.659,3.581,9.719c0.001,0.013,0.006,0.024,0.008,0.037    c0.003,0.022,0.004,0.045,0.009,0.067c0.01,0.049,0.026,0.098,0.041,0.146c0.003,0.009,0.003,0.021,0.007,0.03    c0.002,0.004,0.002,0.008,0.003,0.011C12.173,32.229,11.085,31.808,10.456,31.565z M16.28,29.759    c-0.626-3.868-1.593-6.291-2.723-7.879c-0.254-0.365-0.524-0.682-0.8-0.955c3.731-1.495,6.071-1.715,7.138-1.716    c0.279,0,0.472,0.015,0.582,0.027c0.053,0.006,0.087,0.011,0.102,0.013c0.444,0.093,0.906-0.017,1.261-0.3    c1.856-1.494,4.287-2.401,6.246-2.896c0.979-0.249,1.837-0.397,2.442-0.484c0.303-0.043,0.542-0.071,0.703-0.088    c0.159-0.016,0.224-0.02,0.224-0.021c0.295-0.021,0.585-0.13,0.821-0.31c2.584-2.037,7.142-2.438,9.261-2.411    c0.369,0,0.663,0.009,0.862,0.018c0.199,0.009,0.284,0.018,0.284,0.017c0.239,0.019,0.48-0.02,0.703-0.111    c3.18-1.319,5.888-1.585,7.555-1.585c0.588,0,1.047,0.033,1.347,0.063c0.065,0.008,0.124,0.015,0.174,0.021    c0.589,0.388,1.013,0.984,1.328,1.814c0.344,0.913,0.493,2.066,0.491,3.17c0.001,0.673-0.057,1.319-0.137,1.889    c-2.412,0.47-8.483,1.705-15.35,3.506C30.91,23.627,22.061,26.378,16.28,29.759z M18.286,34.696    c0.064,0.018,0.128,0.036,0.193,0.054c0.697,0.197,1.399,0.403,2.111,0.625c0.068,0.021,0.136,0.044,0.205,0.066    c0.684,0.215,1.375,0.44,2.07,0.679c0.112,0.038,0.225,0.075,0.336,0.114c0.725,0.249,1.456,0.511,2.192,0.78    c0.138,0.051,0.276,0.104,0.415,0.154c0.756,0.282,1.517,0.571,2.284,0.875c0.006,0.002,0.012,0.005,0.018,0.007    c0.765,0.303,1.537,0.619,2.311,0.942c0.134,0.055,0.266,0.11,0.4,0.167c0.756,0.318,1.516,0.644,2.278,0.979    c0.132,0.059,0.264,0.117,0.395,0.175c0.757,0.336,1.517,0.676,2.277,1.025c0.036,0.017,0.072,0.033,0.108,0.049    c0.781,0.358,1.563,0.729,2.346,1.103c0.156,0.075,0.312,0.147,0.467,0.224c0.762,0.366,1.526,0.738,2.29,1.115    c0.129,0.063,0.259,0.129,0.389,0.194c0.708,0.353,1.417,0.709,2.125,1.069c0.112,0.059,0.225,0.114,0.338,0.172    c0.753,0.386,1.505,0.776,2.256,1.17c0.185,0.098,0.37,0.194,0.555,0.292c0.739,0.391,1.477,0.784,2.213,1.182    c0.139,0.076,0.278,0.151,0.417,0.227c0.646,0.353,1.288,0.701,1.928,1.058c0.181,0.1,0.361,0.198,0.542,0.298    c0.7,0.389,1.397,0.777,2.091,1.171c0.223,0.125,0.439,0.25,0.66,0.373c0.654,0.373,1.311,0.746,1.958,1.121    c0.185,0.104,0.366,0.213,0.551,0.317c0.574,0.334,1.146,0.668,1.713,1c0.132,0.077,0.265,0.155,0.396,0.231    C42.667,45.077,27.348,38.427,18.286,34.696z M91.833,88.756c-0.149,0.344-0.31,0.578-0.418,0.697    c-0.052-0.053-0.119-0.133-0.194-0.244c-0.604-0.822-1.386-3.221-1.584-7.232c-0.224-4.062-0.762-7.01-1.466-9.061    c-0.356-1.025-0.747-1.832-1.241-2.477c-0.484-0.617-1.162-1.225-2.207-1.246h-0.021c-0.622,0-1.202,0.293-1.57,0.648    c-0.133,0.127-0.247,0.264-0.349,0.402c-0.102,0.131-0.186,0.271-0.264,0.414c-0.002,0.002-0.004,0.002-0.004,0.006    c-0.188,0.344-0.324,0.709-0.438,1.104c-0.201,0.732-0.31,1.578-0.335,2.557c-0.055,2.234-0.242,3.846-0.471,4.868    c-0.041-0.125-0.08-0.252-0.114-0.39c-0.257-0.908-0.431-2.092-0.431-3.321c0-0.009,0-0.037,0.002-0.087v-0.322    c-0.002-2.283-0.188-4.219-0.508-5.854c-0.002-0.002-0.002-0.004-0.002-0.006c-0.062-0.312-0.128-0.617-0.197-0.908    c-0.004-0.012-0.006-0.02-0.008-0.028c-0.068-0.278-0.143-0.552-0.22-0.812c-0.021-0.062-0.039-0.121-0.06-0.184    c-0.063-0.207-0.129-0.414-0.197-0.607c-0.096-0.264-0.193-0.516-0.299-0.756c-0.463-1.053-1.014-1.896-1.694-2.529    c-0.674-0.627-1.534-1.055-2.476-1.055c-0.168,0-0.332,0.014-0.49,0.039c-0.066,0.01-0.131,0.033-0.196,0.047    c-0.09,0.021-0.182,0.039-0.271,0.066c-0.118,0.039-0.233,0.09-0.348,0.143c-0.029,0.014-0.062,0.023-0.09,0.037    c-0.134,0.066-0.263,0.146-0.388,0.227c-0.005,0.007-0.013,0.009-0.017,0.013c-0.391,0.265-0.727,0.604-0.998,0.985    c0,0-0.002,0-0.002,0.003c-0.07,0.099-0.135,0.202-0.195,0.305c-0.018,0.031-0.038,0.06-0.057,0.089    c0,0.002-0.002,0.004-0.002,0.004c-0.639,1.1-0.968,2.489-1.012,4.164c-0.003,0.135-0.007,0.268-0.012,0.393    c-0.006-0.021-0.01-0.041-0.014-0.062c-0.285-1.398-0.498-3.232-0.562-5.418c-0.005-0.189-0.009-0.381-0.015-0.574    c-0.004-0.258-0.008-0.514-0.008-0.779c0.002-3.397-2.062-5.913-4.578-7.815l-0.131-0.09c-0.223-0.136-0.445-0.271-0.67-0.405    c-0.009-0.005-0.018-0.011-0.023-0.017c-1.438-0.871-2.911-1.753-4.406-2.635c-0.029-0.019-0.062-0.036-0.096-0.055    c-0.029-0.019-0.061-0.036-0.092-0.054c-0.842-0.496-1.692-0.992-2.553-1.486c-0.015-0.01-0.029-0.018-0.043-0.024    c-0.142-0.082-0.281-0.162-0.423-0.244c-0.003-0.002-0.006-0.004-0.009-0.006c-0.75-0.43-1.506-0.857-2.266-1.289    c-0.021-0.012-0.043-0.023-0.064-0.035c-0.143-0.081-0.283-0.161-0.426-0.241c-0.004-0.002-0.008-0.004-0.012-0.006    c-2.656-1.494-5.362-2.963-8.092-4.381c-0.005-0.003-0.009-0.006-0.014-0.009c-0.1-0.051-0.201-0.104-0.301-0.155l-0.006-0.002    c-0.859-0.446-1.721-0.887-2.583-1.319c-0.003-0.002-0.008-0.004-0.011-0.006c-0.067-0.034-0.134-0.067-0.201-0.102    c-0.006-0.002-0.012-0.006-0.018-0.009c-0.896-0.45-1.793-0.893-2.691-1.327c-0.001-0.001-0.002-0.002-0.003-0.002    c-0.018-0.009-0.036-0.017-0.055-0.025c-0.007-0.003-0.014-0.008-0.021-0.011c-0.565-0.273-1.13-0.543-1.695-0.811l-0.136-0.064    c-0.545-0.257-1.09-0.511-1.635-0.762c-0.035-0.016-0.071-0.032-0.106-0.049c-2.934-1.347-5.85-2.592-8.714-3.7    c-0.011-0.004-0.022-0.009-0.032-0.013c-3.196-1.234-6.326-2.299-9.336-3.134c5.297-2.803,13.405-5.374,20.604-7.25    c4.377-1.148,8.442-2.067,11.409-2.698c1.963-0.417,3.438-0.706,4.213-0.855c0.268,0.188,0.53,0.381,0.795,0.573    c5.119,3.708,9.678,8.383,13.668,13.406c-2.188-0.489-3.955-0.336-4.213,0.45c-0.312,0.95,1.705,2.465,4.508,3.384    c1.104,0.361,2.158,0.574,3.057,0.645c4.949,7.002,8.849,14.307,11.662,20.367c0.033,0.074,0.072,0.146,0.117,0.213    c2.082,3.834,3.572,7.022,4.649,9.729c0.198,0.496,0.384,0.977,0.554,1.439l0.024,0.068c0.522,1.426,0.925,2.702,1.235,3.857    c0.031,0.123,0.064,0.246,0.098,0.367c0.938,3.652,0.982,6.095,1.134,8.519c0.013,0.276,0.019,0.55,0.019,0.812    C92.496,86.545,92.195,87.942,91.833,88.756z"></path></g></g></g><g id="SvgjsG2908" featureKey="1RRcwp-0" transform="matrix(3.312169313430786,0,0,3.312169313430786,106.77312088716698,7.477249508885734)" fill="#de761c"><path d="M6.18 6.800000000000001 c2.22 0 3.56 1.26 3.56 3.6 l0 2.52 c0 2.14 -1.32 3.58 -3.56 3.58 l-1.68 0 l0 3.32 c0 0.1 -0.08 0.18 -0.18 0.18 l-2.3 0 c-0.08 0 -0.14 -0.08 -0.14 -0.18 l0 -12.84 c0 -0.1 0.06 -0.18 0.14 -0.18 l4.16 0 z M7.12 12.32 l0 -1.32 c0 -1.38 -0.64 -1.52 -2.04 -1.52 l-0.58 0 l0 4.4 l0.58 0 c1.1 0 2.04 -0.2 2.04 -1.56 z M8.54 12.780000000000001 l0 -2.5 c0 -2.2 -1.7 -2.38 -2.62 -2.38 l-2.7 0 c-0.04 0 -0.12 0.06 -0.12 0.12 l0 10.76 c0 0.14 0.24 0.14 0.24 0 l0 -3.4 l2.4 0 c1.76 0 2.8 -0.62 2.8 -2.6 z M3.34 8.16 l2.58 0 c2.22 0 2.36 1.46 2.36 2.12 l0 2.5 c0 2.04 -1.28 2.32 -2.54 2.32 l-2.4 0 l0 -6.94 z M12.719999999999999 20 c-0.1 0 -0.16 -0.08 -0.16 -0.18 l0 -12.84 c0 -0.1 0.06 -0.18 0.16 -0.18 l2.28 0 c0.1 0 0.18 0.08 0.18 0.18 l0 12.84 c0 0.1 -0.08 0.18 -0.18 0.18 l-2.28 0 z M13.76 8 l0 10.78 c0 0.18 0.22 0.18 0.22 0 l0 -10.78 c0 -0.14 -0.22 -0.14 -0.22 0 z M22.08 17.5 l4.7 0 c0.1 0 0.18 0.08 0.18 0.18 l0 2.14 c0 0.1 -0.08 0.18 -0.18 0.18 l-7.72 0 c-0.08 0 -0.18 -0.04 -0.18 -0.18 l0 -2.22 s0 -0.02 0.02 -0.08 l4.82 -8.22 l-4.72 0 c-0.1 0 -0.18 -0.08 -0.18 -0.18 l0 -2.14 c0 -0.1 0.08 -0.18 0.18 -0.18 l7.78 0 c0.12 0 0.14 0.12 0.14 0.16 l0 2.24 c0 0.02 0 0.06 -0.02 0.08 z M20.12 7.9 c-0.14 0 -0.12 0.26 0 0.26 l5.4 0 c0.14 0 0.16 0.04 0.1 0.14 l-5.76 10.06 c-0.1 0.2 0 0.52 0.3 0.52 l5.46 0 c0.16 0 0.16 -0.26 0 -0.26 l-5.46 0 c-0.08 0 -0.1 -0.06 -0.08 -0.14 l5.74 -10.08 c0.2 -0.34 0.04 -0.5 -0.2 -0.5 l-5.5 0 z M33.88 17.5 l4.7 0 c0.1 0 0.18 0.08 0.18 0.18 l0 2.14 c0 0.1 -0.08 0.18 -0.18 0.18 l-7.72 0 c-0.08 0 -0.18 -0.04 -0.18 -0.18 l0 -2.22 s0 -0.02 0.02 -0.08 l4.82 -8.22 l-4.72 0 c-0.1 0 -0.18 -0.08 -0.18 -0.18 l0 -2.14 c0 -0.1 0.08 -0.18 0.18 -0.18 l7.78 0 c0.12 0 0.14 0.12 0.14 0.16 l0 2.24 c0 0.02 0 0.06 -0.02 0.08 z M31.92 7.9 c-0.14 0 -0.12 0.26 0 0.26 l5.4 0 c0.14 0 0.16 0.04 0.1 0.14 l-5.76 10.06 c-0.1 0.2 0 0.52 0.3 0.52 l5.46 0 c0.16 0 0.16 -0.26 0 -0.26 l-5.46 0 c-0.08 0 -0.1 -0.06 -0.08 -0.14 l5.74 -10.08 c0.2 -0.34 0.04 -0.5 -0.2 -0.5 l-5.5 0 z M42.62 20 c-0.1 0 -0.16 -0.08 -0.16 -0.18 l0 -12.84 c0 -0.1 0.06 -0.18 0.16 -0.18 l6.8 0 c0.1 0 0.18 0.08 0.18 0.18 l0 2.14 c0 0.1 -0.08 0.18 -0.18 0.18 l-4.32 0 l0 2.72 l3.36 0 c0.1 0 0.16 0.08 0.16 0.18 l0 2.18 c0 0.1 -0.06 0.18 -0.16 0.18 l-3.36 0 l0 2.94 l4.32 0 c0.1 0 0.18 0.08 0.18 0.18 l0 2.14 c0 0.1 -0.08 0.18 -0.18 0.18 l-6.8 0 z M43.62 8.06 l0 10.64 c0 0.12 0.08 0.16 0.16 0.16 l4.6 0 c0.18 0 0.14 -0.24 0 -0.24 l-4.5 0 l0 -5.22 l3.68 0 c0.12 0 0.12 -0.28 0 -0.28 l-3.68 0 l0 -4.96 l4.5 0 c0.14 0 0.18 -0.26 0 -0.26 l-4.6 0 c-0.08 0 -0.16 0.06 -0.16 0.16 z M60.48 14.780000000000001 c-0.28 0.58 -0.68 1.02 -1.24 1.28 l1.68 3.7 c0.06 0.12 -0.02 0.24 -0.14 0.24 l-2.46 0 c-0.08 0 -0.12 -0.04 -0.14 -0.1 l-1.56 -3.4 l-1.02 0 l0 3.32 c0 0.1 -0.08 0.18 -0.18 0.18 l-2.3 0 c-0.08 0 -0.14 -0.08 -0.14 -0.18 l0 -12.84 c0 -0.1 0.06 -0.18 0.14 -0.18 l4.16 0 c2.22 0 3.56 1.26 3.56 3.6 l0 2.52 c0 0.7 -0.12 1.36 -0.36 1.86 z M58.21999999999999 12.3 l0 -1.3 c0 -1.4 -0.52 -1.54 -2.04 -1.54 l-0.58 0 l0 4.42 l0.58 0 c1.26 0 2 -0.02 2.04 -1.58 z M54.44 18.78 l0 -3.42 l2.88 0 l1.68 3.46 c0.04 0.1 0.28 0.06 0.22 -0.12 l-1.68 -3.4 c1.56 -0.22 2.1 -1.04 2.1 -2.52 l0 -2.5 c0 -2.2 -2 -2.38 -2.62 -2.38 l-2.7 0 c-0.04 0 -0.12 0.06 -0.12 0.12 l0 10.76 c0 0.14 0.24 0.14 0.24 0 z M59.39999999999999 10.28 l0 2.5 c0 2.04 -1.3 2.32 -2.56 2.32 l-2.4 0 l0 -6.94 l2.58 0 c2.16 0 2.38 1.46 2.38 2.12 z M64.53999999999999 20 c-0.1 0 -0.16 -0.08 -0.16 -0.18 l0 -12.84 c0 -0.1 0.06 -0.18 0.16 -0.18 l2.28 0 c0.1 0 0.18 0.08 0.18 0.18 l0 12.84 c0 0.1 -0.08 0.18 -0.18 0.18 l-2.28 0 z M65.58 8 l0 10.78 c0 0.18 0.22 0.18 0.22 0 l0 -10.78 c0 -0.14 -0.22 -0.14 -0.22 0 z M73.17999999999999 6.92 c0.02 -0.06 0.06 -0.12 0.14 -0.12 l2.48 0 c0.08 0 0.12 0.06 0.14 0.12 l3.46 12.86 c0.02 0.12 -0.06 0.22 -0.18 0.22 l-2.28 0 c-0.06 0 -0.12 -0.04 -0.14 -0.12 l-0.78 -2.8 l-2.92 0 l-0.76 2.8 c-0.02 0.08 -0.06 0.12 -0.14 0.12 l-2.3 0 c-0.12 0 -0.2 -0.1 -0.18 -0.22 z M73.74 14.6 l1.66 0 l-0.86 -3.02 z M76.82 15.780000000000001 l0.92 3 c0.04 0.12 0.26 0.1 0.2 -0.06 l-3.2 -10.64 c-0.06 -0.26 -0.4 -0.28 -0.46 0 l-3.1 10.64 c-0.06 0.14 0.16 0.2 0.22 0.08 l0.88 -3.02 l4.54 0 z M72.34 15.52 l2.18 -7.36 l2.22 7.36 l-4.4 0 z"></path></g>
			</g>
		</svg>
	